# xmcd CD database file
#
# Track frame offsets:
#	150
#	20398
#	45853
#	64906
#	82985
#	93380
#	113038
#	131352
#	152188
#	171390
#	187135
#
# Disc length: 2759 seconds
#
# Revision: 0
# Processed by: cddbd v1.5.1PL2 Copyright (c) Steve Scherf et al.
# Submitted via: CDex 1.51
#
DISCID=880ac50b
DTITLE=The Robert Socia Band - The Robert Socia Band
DYEAR=2006
DGENRE=Country
TTITLE0=Black Gold
TTITLE1=The Armadillo Song
TTITLE2=Ten Long Miles
TTITLE3=The Great Divide
TTITLE4=Gone 'fore Dawn
TTITLE5=Something Ain't Right
TTITLE6=Little Late
TTITLE7=American Blues
TTITLE8=Blind
TTITLE9=High Road
TTITLE10=Shine
EXTD=YEAR: 2006
EXTT0=
EXTT1=
EXTT2=
EXTT3=
EXTT4=
EXTT5=
EXTT6=
EXTT7=
EXTT8=
EXTT9=
EXTT10=
PLAYORDER=
